<svg width="67" height="17" viewBox="0 0 67 17" fill="none" xmlns="http://www.w3.org/2000/svg">
<path fill-rule="evenodd" clip-rule="evenodd" d="M39.9564 0.018539H43.952V14.866C43.952 15.7287 43.4526 16.5005 42.7261 16.8184C42.4991 16.9092 42.2266 17 41.9542 17C41.4093 17 40.9099 16.773 40.5466 16.3643L27.1522 6.23902V17H23.1565V2.10717C23.1565 1.24447 23.656 0.472589 24.3825 0.154754C25.1544 -0.163081 26.0171 0.018539 26.5619 0.608804L39.9564 10.7341V0.018539ZM64.8837 7.96441C64.4297 7.46496 63.8848 7.10172 63.2945 6.82929C62.6589 6.55686 62.0232 6.42064 61.3421 6.42064H50.6265C50.0363 6.42064 49.5822 5.92119 49.5822 5.33092C49.5822 4.74066 50.0363 4.2412 50.6265 4.2412H63.3399C64.4297 4.2412 65.3378 3.2877 65.3378 2.15257C65.3378 0.972044 64.4297 0.063944 63.3399 0.063944H50.6265C49.9455 0.063944 49.2644 0.200159 48.6741 0.472589C48.0839 0.745019 47.539 1.10826 47.085 1.60771C46.6309 2.10717 46.2677 2.65203 45.9952 3.2877C45.7228 3.92337 45.5866 4.64985 45.5866 5.33092C45.5866 6.0574 45.7228 6.73848 45.9952 7.37415C46.2677 8.00981 46.6309 8.55468 47.085 9.05413C47.539 9.55358 48.0839 9.91682 48.6741 10.1893C49.3098 10.4617 49.9455 10.5979 50.6265 10.5979H61.3421C61.9324 10.5979 62.3864 11.0974 62.3864 11.6876C62.3864 12.2779 61.9324 12.7773 61.3421 12.7773H47.5844C46.4947 12.7773 45.5866 13.7308 45.5866 14.866C45.5866 16.0465 46.4947 16.9546 47.5844 16.9546H61.3421C62.0232 16.9546 62.7043 16.8184 63.2945 16.5459C63.8848 16.2735 64.4297 15.9103 64.8837 15.4108C65.3378 14.9114 65.701 14.3665 65.9734 13.7308C66.2459 13.0952 66.3821 12.3687 66.3821 11.6876C66.3821 11.0065 66.2459 10.2801 65.9734 9.64439C65.701 9.00872 65.3378 8.41846 64.8837 7.96441ZM20.8409 8.50927C20.8409 13.186 17.2085 17 12.7588 17H3.31456H1.49836H0V8.50927V0.018539H12.7134C17.2085 0.018539 20.8409 3.83256 20.8409 8.50927ZM16.9815 8.87251C16.9815 7.73738 16.709 6.10281 15.9371 5.28552C15.1653 4.46823 13.9393 3.74175 12.8042 3.74175H3.85942V8.87251V13.0952H12.8042C13.9393 13.0952 14.9836 12.6411 15.7555 11.8692C16.5274 11.0974 16.9815 10.0076 16.9815 8.87251Z" fill="#F28A1E"/>
</svg>
